<svg xmlns="http://www.w3.org/2000/svg" width="63" height="73" viewBox="0 0 63 73"><g><g><path fill="#10cab7" d="M19.092 72.866a1.418 1.418 0 0 1-1.417-1.419V70.44c0-.78.636-1.417 1.417-1.417h10.852l.002-6.609C13.225 60.344.665 46.147.665 29.244.667 17.434 6.721 6.734 16.862.623l.292-.173.031-.02.137-.075c.234-.089.472-.134.701-.134a1.94 1.94 0 0 1 1.939 1.938c0 .61-.282 1.174-.772 1.545l-.367.218a29.958 29.958 0 0 0-4.442 3.296l3.236 3.24a24.93 24.93 0 0 1 16.48-6.205c13.774.003 24.984 11.215 24.986 24.99A24.908 24.908 0 0 1 52.88 45.72l3.239 3.24a29.988 29.988 0 0 0 3.28-4.423l.075-.122.093-.154c.405-.526.967-.806 1.565-.806 1.07 0 1.94.868 1.94 1.936 0 .24-.049.473-.135.702l-.149.26-.121.208c-6.128 10.092-16.806 16.114-28.57 16.114-.104 0-.208-.002-.309-.004v6.353h10.85c.785 0 1.42.636 1.42 1.417v1.007c0 .784-.635 1.42-1.42 1.42zM4.506 29.244c.031 16.284 13.303 29.556 29.59 29.584a29.446 29.446 0 0 0 19.282-7.178l-3.25-3.248a25.014 25.014 0 0 1-16.031 5.83C20.318 54.229 9.108 43.02 9.108 29.244a24.993 24.993 0 0 1 5.826-16.036l-3.25-3.248a29.47 29.47 0 0 0-7.178 19.284zm8.446 0c.022 11.637 9.506 21.121 21.145 21.142 11.638-.02 21.122-9.505 21.142-21.142C55.22 17.6 45.735 8.118 34.097 8.1c-11.639.018-21.123 9.501-21.145 21.144z"/></g></g></svg>