<svg xmlns="http://www.w3.org/2000/svg" width="61" height="77" viewBox="0 0 61 77"><g><g><path fill="#10cab7" d="M40.32 12.511a3.811 3.811 0 0 0 0-5.388 3.81 3.81 0 1 0 0 5.388zM28.996 9.353a5.47 5.47 0 0 0 0-7.745 5.476 5.476 0 1 0-7.743 7.745 5.472 5.472 0 0 0 7.743 0zm30.979 60.343L43.93 42.157c-.948-1.542-1.91-5.107-1.871-6.913v-12.65h1.7c.786 0 1.427-.646 1.427-1.431v-1.427c0-.784-.641-1.43-1.427-1.43h-25.72c-.784 0-1.428.646-1.428 1.43v1.427c0 .785.644 1.43 1.428 1.43h1.25v12.65c.038 1.807-.921 5.372-1.866 6.914L1.376 69.696c-.488.84-.799 1.756-.801 2.731-.021 1.174.545 2.417 1.497 3.154.942.747 2.1 1.035 3.286 1.04H55.99c1.186-.005 2.344-.293 3.29-1.04.948-.737 1.512-1.98 1.493-3.154-.002-.973-.31-1.888-.798-2.731z"/></g></g></svg>