<svg xmlns="http://www.w3.org/2000/svg" width="71" height="71" viewBox="0 0 71 71"><g><g><path fill="#10cab7" d="M67.414 67.462v1.477c0 .814-.665 1.48-1.477 1.48h-40.54a1.484 1.484 0 0 1-1.478-1.48v-1.477c0-.814.666-1.48 1.478-1.48H42.87l9.008-9.005c-3.085-2.189-5.103-5.78-5.105-9.849a12.036 12.036 0 0 1 3.655-8.643l-8.01-8.008-3.093 3.104L37.58 48.7l-2.203-.254 2.2.26c-.093.747-.306 1.491-.84 2.18-.503.674-1.46 1.206-2.393 1.206h-.069c-1.216-.019-2.094-.61-2.774-1.278L2.1 21.414c-.67-.68-1.26-1.552-1.28-2.773-.025-.954.511-1.947 1.204-2.46.69-.54 1.438-.754 2.186-.85l15.164-1.782 9.978-9.973c2.45-2.258 5.75-3.614 9.34-3.61.096 0 .158.002.144.002C46.573.056 52.861 6.342 52.95 14.15v.072c0 3.598-1.378 6.88-3.688 9.393l-3.71 3.72 8.648 8.648a12.025 12.025 0 0 1 4.65-.933c6.671.004 12.073 5.407 12.078 12.077-.005 6.67-5.407 12.074-12.077 12.077a12.02 12.02 0 0 1-2.632-.296l-7.075 7.073h16.794c.812 0 1.477.666 1.477 1.48zM46.058 20.545a9.276 9.276 0 0 0 2.454-6.322v-.097c-.04-5.3-4.423-9.679-9.777-9.723-.043-.004-.043-.004-.043 0-2.47 0-4.68.921-6.27 2.375l-11 10.995-14.93 1.759 26.885 26.885 1.718-14.877zm5.153 26.583a7.65 7.65 0 0 0 7.639 7.64c4.217-.01 7.635-3.423 7.64-7.64a7.649 7.649 0 0 0-7.64-7.64 7.648 7.648 0 0 0-7.639 7.64z"/></g></g></svg>